<svg id="visual" viewBox="0 0 960 540" width="960" height="540" xmlns="http://www.w3.org/2000/svg" xmlns:xlink="http://www.w3.org/1999/xlink" version="1.1"><path d="M738 540L738 540L738 498L652 498L652 457L681 457L681 415L805 415L805 374L633 374L633 332L661 332L661 291L700 291L700 249L671 249L671 208L786 208L786 166L777 166L777 125L815 125L815 83L796 83L796 42L690 42L690 0L960 0L960 42L960 42L960 83L960 83L960 125L960 125L960 166L960 166L960 208L960 208L960 249L960 249L960 291L960 291L960 332L960 332L960 374L960 374L960 415L960 415L960 457L960 457L960 498L960 498L960 540L960 540Z" fill="#000000"></path><path d="M441 540L421 540L421 498L325 498L325 457L431 457L431 415L441 415L441 374L297 374L297 332L364 332L364 291L239 291L239 249L469 249L469 208L546 208L546 166L479 166L479 125L537 125L537 83L450 83L450 42L306 42L306 0L691 0L691 42L797 42L797 83L816 83L816 125L778 125L778 166L787 166L787 208L672 208L672 249L701 249L701 291L662 291L662 332L634 332L634 374L806 374L806 415L682 415L682 457L653 457L653 498L739 498L739 540L739 540Z" fill="#665291"></path><path d="M0 540L0 540L0 498L0 498L0 457L0 457L0 415L0 415L0 374L0 374L0 332L0 332L0 291L0 291L0 249L0 249L0 208L0 208L0 166L0 166L0 125L0 125L0 83L0 83L0 42L0 42L0 0L307 0L307 42L451 42L451 83L538 83L538 125L480 125L480 166L547 166L547 208L470 208L470 249L240 249L240 291L365 291L365 332L298 332L298 374L442 374L442 415L432 415L432 457L326 457L326 498L422 498L422 540L442 540Z" fill="#d1b8ff"></path></svg>