<svg width="68" height="68" viewBox="0 0 68 68" fill="none" xmlns="http://www.w3.org/2000/svg">
<circle cx="34" cy="34" r="34" fill="white"/>
<path d="M35.192 27.352L42.392 17.176C43.672 15.352 45.064 14.328 46.568 14.104C48.072 13.848 49.432 14.2 50.648 15.16C51.448 15.768 51.976 16.584 52.232 17.608C52.488 18.632 52.408 19.72 51.992 20.872C51.576 22.024 50.744 23.112 49.496 24.136L41.48 30.616V31.624C42.504 31.624 43.704 31.752 45.08 32.008C46.456 32.264 47.704 32.84 48.824 33.736C49.72 34.408 50.488 35.176 51.128 36.04C51.8 36.904 52.328 37.976 52.712 39.256C53.096 40.504 53.288 42.088 53.288 44.008C53.288 45.576 52.856 46.84 51.992 47.8C51.16 48.728 49.912 49.192 48.248 49.192C46.584 49.192 45.304 48.728 44.408 47.8C43.544 46.84 43.112 45.576 43.112 44.008C43.112 42.248 42.824 40.856 42.248 39.832C41.704 38.776 40.968 38.008 40.04 37.528C39.112 37.048 38.104 36.808 37.016 36.808H34.664V44.344C34.664 45.72 34.184 46.856 33.224 47.752C32.296 48.648 31.096 49.096 29.624 49.096C28.152 49.096 26.936 48.648 25.976 47.752C25.048 46.856 24.584 45.72 24.584 44.344V18.952C24.584 17.544 25.048 16.36 25.976 15.4C26.904 14.44 28.12 13.96 29.624 13.96C31.224 13.96 32.456 14.44 33.32 15.4C34.216 16.328 34.664 17.48 34.664 18.856V27.256L35.192 27.352Z" fill="black"/>
<path d="M35.464 19.712C35.464 18.24 35.016 17.104 34.12 16.304C33.192 15.472 32.008 15.056 30.568 15.056C29.064 15.056 27.864 15.472 26.968 16.304C26.072 17.104 25.624 18.24 25.624 19.712V40.16C25.624 40.768 25.464 41.2 25.144 41.456C24.824 41.68 24.296 41.584 23.56 41.168C21.96 40.24 20.536 39.504 19.288 38.96C18.04 38.384 16.664 38.096 15.16 38.096C13.08 38.096 11.512 38.64 10.456 39.728C9.39999 40.816 8.87199 42.24 8.87199 44C8.87199 45.888 9.44799 47.344 10.6 48.368C11.72 49.392 13.528 49.904 16.024 49.904H25.912C28.024 49.904 29.784 49.664 31.192 49.184C32.6 48.672 33.672 47.76 34.408 46.448C35.112 45.136 35.464 43.232 35.464 40.736V19.712Z" fill="black"/>
</svg>
