<svg width="124" height="124" viewBox="0 0 124 124" fill="none" xmlns="http://www.w3.org/2000/svg">
<circle cx="62" cy="62" r="62" fill="white"/>
<path d="M64.1736 49.8772L77.303 31.321C79.6371 27.9948 82.1755 26.1275 84.9181 25.7191C87.6607 25.2522 90.1407 25.8941 92.3581 27.6447C93.8169 28.7534 94.7797 30.2414 95.2465 32.1087C95.7134 33.976 95.5675 35.96 94.8089 38.0607C94.0503 40.1614 92.5331 42.1454 90.2574 44.0127L75.6399 55.8292V57.6673C77.5072 57.6673 79.6955 57.9007 82.2047 58.3675C84.7138 58.8344 86.9896 59.8847 89.0319 61.5186C90.6658 62.744 92.0663 64.1445 93.2334 65.72C94.4588 67.2955 95.4216 69.2504 96.1218 71.5845C96.8221 73.8602 97.1722 76.7487 97.1722 80.2499C97.1722 83.1092 96.3844 85.4141 94.8089 87.1647C93.2917 88.857 91.0159 89.7031 87.9816 89.7031C84.9472 89.7031 82.6131 88.857 80.9792 87.1647C79.4037 85.4141 78.6159 83.1092 78.6159 80.2499C78.6159 77.0405 78.0908 74.5021 77.0404 72.6348C76.0484 70.7092 74.7063 69.3087 73.0141 68.4334C71.3218 67.5581 69.4837 67.1205 67.4997 67.1205H63.2108V80.8626C63.2108 83.3718 62.3355 85.4433 60.5849 87.0772C58.8927 88.7111 56.7044 89.528 54.0202 89.528C51.3359 89.528 49.1185 88.7111 47.3679 87.0772C45.6757 85.4433 44.8296 83.3718 44.8296 80.8626V34.5595C44.8296 31.992 45.6757 29.833 47.3679 28.0824C49.0602 26.3318 51.2776 25.4565 54.0202 25.4565C56.9378 25.4565 59.1844 26.3318 60.7599 28.0824C62.3938 29.7746 63.2108 31.8753 63.2108 34.3845V49.7021L64.1736 49.8772Z" fill="black"/>
<path d="M64.6696 35.9454C64.6696 33.2612 63.8527 31.1897 62.2188 29.7308C60.5266 28.2137 58.3675 27.4551 55.7416 27.4551C52.999 27.4551 50.8108 28.2137 49.1769 29.7308C47.543 31.1897 46.7261 33.2612 46.7261 35.9454V73.233C46.7261 74.3417 46.4343 75.1294 45.8508 75.5963C45.2673 76.0047 44.3044 75.8297 42.9623 75.0711C40.0447 73.3788 37.448 72.0367 35.1722 71.0447C32.8964 69.9944 30.3873 69.4692 27.6447 69.4692C23.8517 69.4692 20.9924 70.4612 19.0668 72.4452C17.1411 74.4292 16.1783 77.0259 16.1783 80.2353C16.1783 83.6781 17.2287 86.3332 19.3294 88.2005C21.3717 90.0678 24.6687 91.0014 29.2202 91.0014H47.2513C51.1026 91.0014 54.312 90.5638 56.8795 89.6885C59.447 88.7548 61.4019 87.0918 62.744 84.6993C64.0277 82.3068 64.6696 78.8348 64.6696 74.2833V35.9454Z" fill="black"/>
</svg>
