<svg width="68" height="75" viewBox="0 0 68 75" fill="none" xmlns="http://www.w3.org/2000/svg">
<circle cx="34" cy="41" r="34" fill="black"/>
<path d="M35.192 34.352L42.392 24.176C43.672 22.352 45.064 21.328 46.568 21.104C48.072 20.848 49.432 21.2 50.648 22.16C51.448 22.768 51.976 23.584 52.232 24.608C52.488 25.632 52.408 26.72 51.992 27.872C51.576 29.024 50.744 30.112 49.496 31.136L41.48 37.616V38.624C42.504 38.624 43.704 38.752 45.08 39.008C46.456 39.264 47.704 39.84 48.824 40.736C49.72 41.408 50.488 42.176 51.128 43.04C51.8 43.904 52.328 44.976 52.712 46.256C53.096 47.504 53.288 49.088 53.288 51.008C53.288 52.576 52.856 53.84 51.992 54.8C51.16 55.728 49.912 56.192 48.248 56.192C46.584 56.192 45.304 55.728 44.408 54.8C43.544 53.84 43.112 52.576 43.112 51.008C43.112 49.248 42.824 47.856 42.248 46.832C41.704 45.776 40.968 45.008 40.04 44.528C39.112 44.048 38.104 43.808 37.016 43.808H34.664V51.344C34.664 52.72 34.184 53.856 33.224 54.752C32.296 55.648 31.096 56.096 29.624 56.096C28.152 56.096 26.936 55.648 25.976 54.752C25.048 53.856 24.584 52.72 24.584 51.344V25.952C24.584 24.544 25.048 23.36 25.976 22.4C26.904 21.44 28.12 20.96 29.624 20.96C31.224 20.96 32.456 21.44 33.32 22.4C34.216 23.328 34.664 24.48 34.664 25.856V34.256L35.192 34.352Z" fill="white"/>
<path d="M35.464 26.712C35.464 25.24 35.016 24.104 34.12 23.304C33.192 22.472 32.008 22.056 30.568 22.056C29.064 22.056 27.864 22.472 26.968 23.304C26.072 24.104 25.624 25.24 25.624 26.712V47.16C25.624 47.768 25.464 48.2 25.144 48.456C24.824 48.68 24.296 48.584 23.56 48.168C21.96 47.24 20.536 46.504 19.288 45.96C18.04 45.384 16.664 45.096 15.16 45.096C13.08 45.096 11.512 45.64 10.456 46.728C9.4 47.816 8.872 49.24 8.872 51C8.872 52.888 9.448 54.344 10.6 55.368C11.72 56.392 13.528 56.904 16.024 56.904H25.912C28.024 56.904 29.784 56.664 31.192 56.184C32.6 55.672 33.672 54.76 34.408 53.448C35.112 52.136 35.464 50.232 35.464 47.736V26.712Z" fill="white"/>
</svg>
