{
	"asset":{
		"generator":"Khronos glTF Blender I/O v4.1.63",
		"version":"2.0"
	},
	"scene":0,
	"scenes":[
		{
			"name":"Scene",
			"nodes":[
				0
			]
		}
	],
	"nodes":[
		{
			"mesh":0,
			"name":"Planet"
		}
	],
	"materials":[
		{
			"doubleSided":true,
			"name":"Planet Texture",
			"pbrMetallicRoughness":{
				"baseColorTexture":{
					"index":0
				},
				"metallicFactor":0
			}
		}
	],
	"meshes":[
		{
			"name":"Sphere",
			"primitives":[
				{
					"attributes":{
						"POSITION":0,
						"NORMAL":1,
						"TEXCOORD_0":2
					},
					"indices":3,
					"material":0
				}
			]
		}
	],
	"textures":[
		{
			"sampler":0,
			"source":0
		}
	],
	"images":[
		{
			"mimeType":"image/png",
			"name":"Baked",
			"uri":"Baked.png"
		}
	],
	"accessors":[
		{
			"bufferView":0,
			"componentType":5126,
			"count":3969,
			"max":[
				139.99998474121094,
				140,
				139.99996948242188
			],
			"min":[
				-139.9999542236328,
				-140,
				-140
			],
			"type":"VEC3"
		},
		{
			"bufferView":1,
			"componentType":5126,
			"count":3969,
			"type":"VEC3"
		},
		{
			"bufferView":2,
			"componentType":5126,
			"count":3969,
			"type":"VEC2"
		},
		{
			"bufferView":3,
			"componentType":5123,
			"count":11904,
			"type":"SCALAR"
		}
	],
	"bufferViews":[
		{
			"buffer":0,
			"byteLength":47628,
			"byteOffset":0,
			"target":34962
		},
		{
			"buffer":0,
			"byteLength":47628,
			"byteOffset":47628,
			"target":34962
		},
		{
			"buffer":0,
			"byteLength":31752,
			"byteOffset":95256,
			"target":34962
		},
		{
			"buffer":0,
			"byteLength":23808,
			"byteOffset":127008,
			"target":34963
		}
	],
	"samplers":[
		{
			"magFilter":9729,
			"minFilter":9987
		}
	],
	"buffers":[
		{
			"byteLength":150816,
			"uri":"Planet5.bin"
		}
	]
}
